<svg xmlns="http://www.w3.org/2000/svg" width="106.495" height="106.494" viewBox="0 0 106.495 106.494">
  <g id="practice" transform="translate(-169.383 -313.405)">
    <path id="Path_4532" data-name="Path 4532" d="M228.221,314.051a.5.5,0,0,0-.441-.4,53.382,53.382,0,0,0-10.3,0,.5.5,0,0,0-.441.4l-1.611,7.842a45.351,45.351,0,0,0-8.941,2.395l-5.315-5.985a.5.5,0,0,0-.581-.123,53.248,53.248,0,0,0-8.92,5.15.5.5,0,0,0-.183.564l2.525,7.6a45.4,45.4,0,0,0-6.545,6.545l-7.6-2.525a.5.5,0,0,0-.564.183,53.208,53.208,0,0,0-5.15,8.92.5.5,0,0,0,.123.581l5.985,5.315a45.348,45.348,0,0,0-2.4,8.941l-7.841,1.611a.5.5,0,0,0-.4.441,53.382,53.382,0,0,0,0,10.3.5.5,0,0,0,.4.441l7.841,1.611a45.349,45.349,0,0,0,2.4,8.941l-5.985,5.315a.5.5,0,0,0-.123.581,53.207,53.207,0,0,0,5.15,8.92.5.5,0,0,0,.564.183l7.6-2.525a45.4,45.4,0,0,0,6.545,6.545l-2.525,7.6a.5.5,0,0,0,.183.564,53.244,53.244,0,0,0,8.92,5.15.5.5,0,0,0,.581-.123l5.315-5.985a45.349,45.349,0,0,0,8.941,2.4l1.611,7.842a.5.5,0,0,0,.441.4,53.382,53.382,0,0,0,10.3,0,.5.5,0,0,0,.441-.4l1.611-7.842a45.348,45.348,0,0,0,8.941-2.4L244.088,415a.5.5,0,0,0,.581.123,53.205,53.205,0,0,0,8.92-5.15.5.5,0,0,0,.184-.564l-2.526-7.6a45.4,45.4,0,0,0,6.545-6.545l7.6,2.525a.5.5,0,0,0,.565-.183,53.269,53.269,0,0,0,5.149-8.92.5.5,0,0,0-.123-.581l-5.985-5.315a45.422,45.422,0,0,0,2.4-8.941l7.841-1.611a.5.5,0,0,0,.4-.441,53.222,53.222,0,0,0,0-10.3.5.5,0,0,0-.4-.441l-7.841-1.611a45.42,45.42,0,0,0-2.4-8.941l5.985-5.315a.5.5,0,0,0,.123-.581,53.27,53.27,0,0,0-5.149-8.92.5.5,0,0,0-.565-.183l-7.6,2.525a45.394,45.394,0,0,0-6.545-6.545l2.526-7.6a.5.5,0,0,0-.184-.564,53.209,53.209,0,0,0-8.92-5.15.5.5,0,0,0-.581.123l-5.315,5.985a45.423,45.423,0,0,0-8.941-2.4l-1.611-7.841Zm-.9.564,1.606,7.818a.5.5,0,0,0,.414.394,44.373,44.373,0,0,1,9.4,2.518.5.5,0,0,0,.555-.134l5.3-5.967a52.265,52.265,0,0,1,8.117,4.686l-2.518,7.573a.5.5,0,0,0,.161.548,44.375,44.375,0,0,1,6.881,6.881.5.5,0,0,0,.548.162l7.573-2.519a52.185,52.185,0,0,1,4.686,8.117l-5.967,5.3a.5.5,0,0,0-.134.555,44.313,44.313,0,0,1,2.518,9.4.5.5,0,0,0,.394.414l7.818,1.606a52.2,52.2,0,0,1,0,9.372l-7.818,1.606a.5.5,0,0,0-.394.414,44.313,44.313,0,0,1-2.518,9.4.5.5,0,0,0,.134.555l5.967,5.3a52.23,52.23,0,0,1-4.686,8.117l-7.573-2.519a.5.5,0,0,0-.548.162,44.326,44.326,0,0,1-6.881,6.88.5.5,0,0,0-.161.548l2.518,7.574a52.265,52.265,0,0,1-8.117,4.686l-5.3-5.968a.5.5,0,0,0-.555-.133,44.373,44.373,0,0,1-9.4,2.518.5.5,0,0,0-.414.394l-1.606,7.818a52.388,52.388,0,0,1-9.372,0l-1.606-7.818a.5.5,0,0,0-.414-.394,44.373,44.373,0,0,1-9.4-2.518.5.5,0,0,0-.555.133l-5.3,5.968a52.256,52.256,0,0,1-8.116-4.686l2.518-7.574a.5.5,0,0,0-.162-.548,44.32,44.32,0,0,1-6.88-6.88.5.5,0,0,0-.548-.162l-7.574,2.519a52.31,52.31,0,0,1-4.686-8.117l5.968-5.3a.5.5,0,0,0,.133-.555,44.373,44.373,0,0,1-2.518-9.4.5.5,0,0,0-.394-.414l-7.818-1.606a52.388,52.388,0,0,1,0-9.372l7.818-1.606a.5.5,0,0,0,.394-.414,44.374,44.374,0,0,1,2.518-9.4.5.5,0,0,0-.133-.555l-5.968-5.3a52.265,52.265,0,0,1,4.686-8.117l7.574,2.519a.5.5,0,0,0,.548-.162,44.369,44.369,0,0,1,6.88-6.881.5.5,0,0,0,.162-.548l-2.519-7.573a52.312,52.312,0,0,1,8.117-4.686l5.3,5.967a.5.5,0,0,0,.555.134,44.373,44.373,0,0,1,9.4-2.518.5.5,0,0,0,.414-.394l1.606-7.818a52.388,52.388,0,0,1,9.372,0ZM222.63,355.6a11.049,11.049,0,1,0,11.05,11.049A11.054,11.054,0,0,0,222.63,355.6Zm0,1a10.049,10.049,0,1,1-10.049,10.049A10.054,10.054,0,0,1,222.63,356.6Z" fill="#262626" fill-rule="evenodd"/>
    <path id="Path_4533" data-name="Path 4533" d="M222.63,346.272a20.38,20.38,0,1,1-20.38,20.38,20.39,20.39,0,0,1,20.38-20.38Z" fill="#2f8d46" fill-rule="evenodd"/>
    <path id="Path_4534" data-name="Path 4534" d="M230.975,366.652l-12.934,7.822V358.83l12.934,7.822Z" fill="#fff" fill-rule="evenodd"/>
  </g>
</svg>
