<svg xmlns="http://www.w3.org/2000/svg" width="96.677" height="106.494" viewBox="0 0 96.677 106.494">
  <g id="Write" transform="translate(-34 -313.405)">
    <path id="Path_4524" data-name="Path 4524" d="M99.381,378.7l31.3-38.809-7.838-6.321-31.3,38.809,7.838,6.321Z" fill="#2f8d46" fill-rule="evenodd"/>
    <path id="Path_4525" data-name="Path 4525" d="M91.239,373.943l-1.176,8.108,8.152-2.624-6.976-5.484Z" fill="#2f8d46" fill-rule="evenodd"/>
    <path id="Path_4526" data-name="Path 4526" d="M113.422,313.9a.5.5,0,0,0-.5-.5H34.5a.5.5,0,0,0-.5.5V419.4a.5.5,0,0,0,.5.5h78.422a.5.5,0,0,0,.5-.5V313.9Zm-1,.5V418.9H35V314.4Z" fill="#262626" fill-rule="evenodd"/>
    <path id="Path_4527" data-name="Path 4527" d="M47.42,334.065H99.5a.5.5,0,0,0,0-1H47.42a.5.5,0,0,0,0,1Z" fill="#262626" fill-rule="evenodd"/>
    <path id="Path_4528" data-name="Path 4528" d="M47.42,401.819H99.5a.5.5,0,0,0,0-1H47.42a.5.5,0,0,0,0,1Z" fill="#262626" fill-rule="evenodd"/>
    <path id="Path_4529" data-name="Path 4529" d="M47.42,351.208H99.5a.5.5,0,0,0,0-1H47.42a.5.5,0,0,0,0,1Z" fill="#262626" fill-rule="evenodd"/>
    <path id="Path_4530" data-name="Path 4530" d="M47.42,368.745H99.5a.5.5,0,0,0,0-1H47.42a.5.5,0,0,0,0,1Z" fill="#262626" fill-rule="evenodd"/>
    <path id="Path_4531" data-name="Path 4531" d="M47.42,385.888H99.5a.5.5,0,0,0,0-1H47.42a.5.5,0,0,0,0,1Z" fill="#262626" fill-rule="evenodd"/>
  </g>
</svg>
