<svg xmlns="http://www.w3.org/2000/svg" width="96.053" height="106.494" viewBox="0 0 96.053 106.494">
  <g id="premium" transform="translate(-335.665 -313.405)">
    <path id="Path_4539" data-name="Path 4539" d="M431.718,373.607a.5.5,0,0,0-.5-.5H419.409a.5.5,0,0,0-.5.5v39.888a6.4,6.4,0,0,0,6.4,6.4h0a6.4,6.4,0,0,0,6.4-6.4V373.607Zm-1,.5v39.388a5.4,5.4,0,0,1-5.4,5.4h0a5.4,5.4,0,0,1-5.4-5.4V374.107Z" fill="#262626" fill-rule="evenodd"/>
    <path id="Path_4540" data-name="Path 4540" d="M419.9,413.114V313.9a.5.5,0,0,0-.5-.5H336.165a.5.5,0,0,0-.5.5v97.917a8.078,8.078,0,0,0,8.078,8.077h81.571a.5.5,0,0,0,0-1H343.743a7.078,7.078,0,0,1-7.078-7.077V314.4H418.9v98.709a.5.5,0,0,0,1,0Z" fill="#262626" fill-rule="evenodd"/>
    <path id="Path_4541" data-name="Path 4541" d="M348.854,348.2h32.393a.5.5,0,0,0,0-1H348.854a.5.5,0,0,0,0,1Z" fill="#262626" fill-rule="evenodd"/>
    <path id="Path_4542" data-name="Path 4542" d="M348.854,353.1h40.063a.5.5,0,0,0,0-1H348.854a.5.5,0,0,0,0,1Z" fill="#262626" fill-rule="evenodd"/>
    <path id="Path_4543" data-name="Path 4543" d="M348.854,358h13.369a.5.5,0,0,0,0-1H348.854a.5.5,0,0,0,0,1Z" fill="#262626" fill-rule="evenodd"/>
    <path id="Path_4544" data-name="Path 4544" d="M378.032,367.574a20.27,20.27,0,1,1-20.27,20.271,20.28,20.28,0,0,1,20.27-20.271Z" fill="#2f8d46" fill-rule="evenodd"/>
    <path id="Path_4545" data-name="Path 4545" d="M369.788,395.488l-2.63-11.941,6.811,3,4.306-7.952,4.437,7.952,6.51-2.966-2.566,12-16.868-.092Z" fill="#fff" fill-rule="evenodd"/>
    <path id="Path_4546" data-name="Path 4546" d="M389.417,325.863a.5.5,0,0,0-.5-.5H348.854a.5.5,0,0,0-.5.5v14.99a.5.5,0,0,0,.5.5h40.063a.5.5,0,0,0,.5-.5v-14.99Zm-1,.5v13.99H349.354v-13.99Z" fill="#262626" fill-rule="evenodd"/>
  </g>
</svg>
