<svg xmlns="http://www.w3.org/2000/svg" width="107.866" height="107.367" viewBox="0 0 107.866 107.367">
  <g id="jobs" transform="translate(-470.773 -313)">
    <path id="Path_4535" data-name="Path 4535" d="M521.355,355.988h6.7l3.23,47.026-6.582,7.405-6.582-7.405,3.229-47.026Z" fill="#2f8d46" fill-rule="evenodd"/>
    <path id="Path_4536" data-name="Path 4536" d="M571.374,420.1a7.286,7.286,0,0,0,7.266-7.286v-3.533a53.8,53.8,0,0,0-53.8-53.8h0a54.069,54.069,0,0,0-54.069,54.1c0,1.251,0,2.419,0,3.485a7.295,7.295,0,0,0,7.316,7.29l93.283-.263Zm0-1-93.283.263a6.3,6.3,0,0,1-6.313-6.29c0-1.067,0-2.234,0-3.486a53.071,53.071,0,0,1,53.069-53.1h0a52.8,52.8,0,0,1,52.8,52.8v3.533a6.286,6.286,0,0,1-6.269,6.286Z" fill="#262626" fill-rule="evenodd"/>
    <path id="Path_4537" data-name="Path 4537" d="M541.6,357.8a25.37,25.37,0,1,1,8.477-18.924A25.281,25.281,0,0,1,541.6,357.8" fill="#fff" fill-rule="evenodd"/>
    <path id="Path_4538" data-name="Path 4538" d="M524.874,313h-.168a25.874,25.874,0,1,0,17.23,45.17l.124-.111A25.869,25.869,0,0,0,524.874,313Zm16.4,44.424a24.869,24.869,0,1,0-16.564,6.323,24.816,24.816,0,0,0,16.564-6.323Z" fill="#262626" fill-rule="evenodd"/>
  </g>
</svg>
